<mxfile host="app.diagrams.net" modified="2022-11-07T08:13:47.444Z" agent="5.0 (Macintosh; Intel Mac OS X 10_15_7) AppleWebKit/537.36 (KHTML, like Gecko) Chrome/107.0.0.0 Safari/537.36" etag="LbpjnC0aX_4gCnSt06Ed" version="20.2.3" type="github">
  <diagram id="r6LL--7ONq4zFw7ZGBFc" name="第 1 页">
    <mxGraphModel dx="1426" dy="744" grid="1" gridSize="10" guides="1" tooltips="1" connect="1" arrows="1" fold="1" page="1" pageScale="1" pageWidth="827" pageHeight="1169" math="0" shadow="0">
      <root>
        <mxCell id="0" />
        <mxCell id="1" parent="0" />
        <mxCell id="FpEsrSy_xUEmG_wjYfyo-2" value="&lt;font style=&quot;font-size: 27px;&quot;&gt;&lt;font color=&quot;#ff3333&quot;&gt;scheme&lt;/font&gt;://&lt;font color=&quot;#ff8000&quot;&gt;openType&lt;/font&gt;/&lt;font color=&quot;#0066cc&quot;&gt;pageName&lt;/font&gt;?&lt;font color=&quot;#009900&quot;&gt;key1=value1&amp;amp;key2=value2&lt;/font&gt;&lt;/font&gt;" style="text;html=1;strokeColor=none;fillColor=none;align=center;verticalAlign=middle;whiteSpace=wrap;rounded=0;" vertex="1" parent="1">
          <mxGeometry y="280" width="880" height="110" as="geometry" />
        </mxCell>
      </root>
    </mxGraphModel>
  </diagram>
</mxfile>
